<?xml version="1.0" standalone="no"?><!DOCTYPE svg PUBLIC "-//W3C//DTD SVG 1.1//EN" "http://www.w3.org/Graphics/SVG/1.1/DTD/svg11.dtd"><svg t="1678612185165" class="icon" viewBox="0 0 1024 1024" version="1.1" xmlns="http://www.w3.org/2000/svg" p-id="3902" width="64" height="64" xmlns:xlink="http://www.w3.org/1999/xlink"><path d="M799.08 310.98c0.8 3.57 3.24 15.64 1.12 30-1.34 9.05-4.49 19.01-11 28.33-11.22 16.04-29.62 26.15-48.7 30.09-22.7 4.69-46.35 0.64-59.99-12.56-12.68-12.29-15.94-47.82-15.94-47.82s-1.88-20.57-0.55-31.7c1.26-10.62 4.66-21.3 12.35-30.77 7.77-9.58 18.78-16.5 31.05-20.29 17.47-5.41 37.49-4.49 54.37 4.04 9.48 4.79 16.63 11.3 22 18.11 10.45 13.24 14.18 27.59 15.29 32.57z" fill="#E6DE3F" p-id="3903"></path><path d="M701.02 837H292.84C193.38 837 112 755.62 112 656.16V502.51a723.66 723.66 0 0 1 44.96-58.96c12.68-14.98 28.63-30.63 48.23-29.93 25.43 0.91 40.7 27.81 50.95 51.11 15.72 35.75 31.45 71.5 47.18 107.25 4.59 10.43 10.57 22.09 21.63 24.86 10.46 2.61 20.9-4.02 28.96-11.18a148.624 148.624 0 0 0 29.64-36.19c3.37-5.78 6.4-11.87 11-16.74 13.94-14.76 38.81-13.83 56.26-3.44 17.44 10.4 29.2 27.94 40.33 44.94 61.59 94.05 124.4 191.29 209.88 262.77z" fill="#40A33C" p-id="3904"></path><path d="M731.16 847h-30.14c-5.52 0-10-4.48-10-10s4.48-10 10-10h30.14C825.36 827 902 750.36 902 656.16V367.84C902 273.64 825.36 197 731.16 197H292.84C198.64 197 122 273.64 122 367.84v134.67c0 5.52-4.48 10-10 10s-10-4.48-10-10V367.84c0-50.77 19.91-98.64 56.05-134.79C194.2 196.9 242.07 177 292.84 177h438.32c50.77 0 98.64 19.91 134.79 56.05C902.1 269.19 922 317.06 922 367.84v288.32c0 50.77-19.91 98.64-56.05 134.79C829.81 827.09 781.94 847 731.16 847z" p-id="3905"></path><path d="M722.37 411.29c-19.54 0-37.25-6.07-48.81-17.26-14.92-14.46-18.58-50.08-18.94-54.09-0.08-0.89-1.96-21.76-0.52-33.8 1.68-14.19 6.43-25.93 14.52-35.89 8.82-10.88 21.22-19.02 35.86-23.54 20.72-6.42 43.26-4.71 61.83 4.67 9.82 4.96 18.35 11.98 25.34 20.84 10.96 13.89 15.48 28.89 17.2 36.59 1.4 6.24 3.42 18.92 1.25 33.64v0.01c-1.8 12.14-6.07 23.11-12.69 32.59-11.86 16.96-31.86 29.4-54.88 34.16-6.82 1.39-13.59 2.08-20.16 2.08z m7.47-148.43c-6.5 0-13.08 0.98-19.46 2.95-10.85 3.35-19.92 9.24-26.24 17.04-5.63 6.93-8.96 15.32-10.19 25.65-0.99 8.26 0.08 24.18 0.58 29.61 1.23 13.23 6.06 34.88 12.94 41.55 10.59 10.25 30.61 14.16 51.01 9.95 18.07-3.73 33.57-13.22 42.53-26.03 4.83-6.92 7.96-15.01 9.3-24.06 1.76-11.95-0.1-22.41-0.99-26.35-1.35-6.05-4.88-17.78-13.38-28.56-5.18-6.57-11.46-11.74-18.66-15.38-8.35-4.23-17.81-6.37-27.44-6.37z m70.36 78.12zM701.02 847H292.84c-50.77 0-98.64-19.91-134.79-56.05C121.91 754.8 102 706.93 102 656.16V502.51c0-2.02 0.61-3.98 1.75-5.65a737.037 737.037 0 0 1 45.58-59.78c13.57-16.03 32.24-34.28 56.22-33.46 31.54 1.13 49.21 33.12 59.75 57.08 14.41 32.77 28.83 65.54 43.25 98.31l3.93 8.94c3.97 9.02 8.52 17.59 14.91 19.19 6.33 1.58 14.31-4 19.89-8.96a137.989 137.989 0 0 0 27.64-33.75c0.6-1.04 1.2-2.08 1.79-3.13 2.81-4.96 6-10.59 10.58-15.44 18.08-19.14 48.86-16.95 68.65-5.17 19.88 11.86 33.02 31.93 43.58 48.06l3.97 6.07c59.71 91.21 121.45 185.52 203.96 254.51a9.984 9.984 0 0 1 2.98 11.08 10.01 10.01 0 0 1-9.41 6.59zM122 505.61v150.54C122 750.36 198.64 827 292.84 827h381.62c-74.74-68.66-132.1-156.27-187.71-241.23l-3.97-6.06c-9.92-15.16-21.17-32.34-37.09-41.83-13.29-7.91-33.33-9.44-43.87 1.72-2.91 3.08-5.25 7.2-7.72 11.56-0.63 1.12-1.27 2.24-1.92 3.35a158.197 158.197 0 0 1-31.64 38.63c-13.35 11.86-26.15 16.37-38.02 13.41-16.77-4.2-24.31-21.33-28.36-30.53l-3.93-8.94c-14.42-32.77-28.84-65.54-43.25-98.31-8.37-19.03-21.85-44.42-42.15-45.14-15.3-0.52-28.93 13.04-40.24 26.4A717.318 717.318 0 0 0 122 505.61z" p-id="3906"></path></svg>